HIERARCHY
ROOT Hips
{
	OFFSET	0.00	0.00	0.00
	CHANNELS 6 Xposition Yposition Zposition Zrotation Xrotation Yrotation
	JOINT LeftUpLeg
	{
		OFFSET	 0.126116	-0.065224	 0.014019
		CHANNELS 3 Zrotation Xrotation Yrotation
		JOINT LeftLeg
		{
			OFFSET	 0.000000	 0.569914	 0.000000
			CHANNELS 3 Zrotation Xrotation Yrotation
			JOINT LeftFoot
			{
				OFFSET	 0.000000	 0.544423	 0.000000
				CHANNELS 3 Zrotation Xrotation Yrotation
				JOINT LeftToeBase
				{
					OFFSET	 0.000000	 0.207117	 0.000000
					CHANNELS 3 Zrotation Xrotation Yrotation
					End Site
					{
						OFFSET	 0.000000	 0.207117	 0.000000
					}
				}
			}
		}
	}
	JOINT RightUpLeg
	{
		OFFSET	-0.124023	-0.065224	 0.008373
		CHANNELS 3 Zrotation Xrotation Yrotation
		JOINT RightLeg
		{
			OFFSET	 0.000000	 0.570047	 0.000000
			CHANNELS 3 Zrotation Xrotation Yrotation
			JOINT RightFoot
			{
				OFFSET	 0.000000	 0.544354	 0.000000
				CHANNELS 3 Zrotation Xrotation Yrotation
				JOINT RightToeBase
				{
					OFFSET	 0.000000	 0.207540	 0.000000
					CHANNELS 3 Zrotation Xrotation Yrotation
					End Site
					{
						OFFSET	 0.000000	 0.207540	 0.000000
					}
				}
			}
		}
	}
	JOINT Spine
	{
		OFFSET	 0.000184	 0.117403	 0.007763
		CHANNELS 3 Zrotation Xrotation Yrotation
		JOINT Spine1
		{
			OFFSET	 0.000000	 0.137269	 0.000000
			CHANNELS 3 Zrotation Xrotation Yrotation
			JOINT Spine2
			{
				OFFSET	 0.000000	 0.156879	 0.000000
				CHANNELS 3 Zrotation Xrotation Yrotation
				JOINT LeftShoulder
				{
					OFFSET	 0.080501	 0.160143	 0.002496
					CHANNELS 3 Zrotation Xrotation Yrotation
					JOINT LeftArm
					{
						OFFSET	 0.000000	 0.164363	 0.000000
						CHANNELS 3 Zrotation Xrotation Yrotation
						JOINT LeftForeArm
						{
							OFFSET	 0.000000	 0.364576	 0.000000
							CHANNELS 3 Zrotation Xrotation Yrotation
							JOINT LeftHand
							{
								OFFSET	 0.000000	 0.360812	 0.000000
								CHANNELS 3 Zrotation Xrotation Yrotation
								JOINT LeftHandIndex1
								{
									OFFSET	 0.000000	 0.086006	 0.000000
									CHANNELS 3 Zrotation Xrotation Yrotation
									JOINT LeftHandIndex2
									{
										OFFSET	 0.000000	 0.047237	 0.000000
										CHANNELS 3 Zrotation Xrotation Yrotation
										JOINT LeftHandIndex3
										{
											OFFSET	-0.004284	 0.038165	 0.000551
											CHANNELS 3 Zrotation Xrotation Yrotation
											End Site
											{
												OFFSET	-0.004284	 0.038165	 0.000551
											}
										}
									}
								}
							}
						}
					}
				}
				JOINT Neck
				{
					OFFSET	 0.000000	 0.176489	 0.000000
					CHANNELS 3 Zrotation Xrotation Yrotation
					JOINT Head
					{
						OFFSET	 0.000000	 0.077941	 0.001747
						CHANNELS 3 Zrotation Xrotation Yrotation
						End Site
						{
							OFFSET	 0.000000	 0.077941	 0.001747
						}
					}
				}
				JOINT RightShoulder
				{
					OFFSET	-0.080363	 0.159706	-0.000306
					CHANNELS 3 Zrotation Xrotation Yrotation
					JOINT RightArm
					{
						OFFSET	 0.000000	 0.164196	 0.000000
						CHANNELS 3 Zrotation Xrotation Yrotation
						JOINT RightForeArm
						{
							OFFSET	 0.000000	 0.365611	 0.000000
							CHANNELS 3 Zrotation Xrotation Yrotation
							JOINT RightHand
							{
								OFFSET	 0.000000	 0.360648	 0.000000
								CHANNELS 3 Zrotation Xrotation Yrotation
								JOINT RightHandIndex1
								{
									OFFSET	 0.000000	 0.069977	 0.000000
									CHANNELS 3 Zrotation Xrotation Yrotation
									JOINT RightHandIndex2
									{
										OFFSET	 0.000000	 0.052305	 0.000000
										CHANNELS 3 Zrotation Xrotation Yrotation
										JOINT RightHandIndex3
										{
											OFFSET	 0.009002	 0.042196	 0.000782
											CHANNELS 3 Zrotation Xrotation Yrotation
											End Site
											{
												OFFSET	 0.009002	 0.042196	 0.000782
											}
										}
									}
								}
							}
						}
					}
				}
			}
		}
	}
}
MOTION
Frames:    10
Frame Time: 0.03333334
-0.007703	 1.211962	-4.277878	-0.163893	 1.574961	-170.161100	-169.126200	-9.316973	-24.065060	 8.019297	-46.465530	 7.935440	-25.137850	 60.454170	 19.916930	 4.875242	 58.861370	-4.216452	 171.780200	 31.609660	 31.379780	-2.769147	-32.720710	 7.428165	-20.655830	 61.964930	 8.233483	-1.691245	 33.408170	 2.897592	 1.235461	 7.459986	-0.685163	 0.993319	 2.797373	-2.418271	-0.074315	-3.404321	-1.369985	-120.732900	 8.499520	 94.513370	 40.677400	 0.569362	-16.592270	 24.407320	-0.219939	 21.845600	 2.128218	-11.252290	 16.442410	 5.026490	 21.931580	-1.984509	-5.867648	 25.331590	 2.805750	 5.530165	 9.049277	-0.091444	-0.044040	-5.103789	 0.128225	-1.744906	-1.265593	-2.291728	 119.328900	-1.864368	-89.989330	 7.571571	 39.810250	-4.726569	-25.499070	-0.204340	-21.868540	-11.618160	-17.527300	-41.202810	-1.867190	 11.758270	 1.053362	 13.367130	 31.481740	-7.376474	-8.467113	 9.924693	-0.325202
 0.002884	 1.257639	-4.676331	 0.686810	 3.011543	-175.765200	-158.457200	 20.609960	-43.899750	 24.093330	-72.011880	 21.323710	-12.237290	 65.498420	 16.880700	 1.498890	 31.073340	-2.805385	 177.517500	 10.524390	 28.765720	-2.825102	-33.243760	-0.257800	-36.929310	 73.063100	 33.074300	-1.594400	 32.242120	 2.849638	 4.343864	 7.416476	-20.226880	 0.477312	 2.734771	-0.277912	-0.017026	-3.113970	-0.675933	-120.129100	 6.648675	 93.562230	 38.165050	 30.696960	-19.112360	 45.195110	-0.908766	 26.736900	-23.201210	-12.291490	 44.753020	 5.014740	 25.712710	-2.148783	-5.896991	 28.616110	 3.185404	 5.699752	 13.133730	-0.036733	 0.100355	-4.864470	-0.334396	-2.151280	-1.489464	-3.312954	 119.871200	 0.035274	-90.903400	-17.611430	 46.609660	 8.773960	-29.604230	-0.203212	-26.242800	-11.568740	-25.299850	-35.000430	-2.620734	 18.604710	 1.436120	 14.362390	 38.121420	-9.370957	-8.517662	 15.338510	-0.666973
-0.047138	 1.245283	-5.767648	-3.776083	 2.385892	-177.330200	 179.153900	 17.963130	-35.203180	 5.187308	-34.298520	 1.412711	-2.115377	 72.418270	 15.368550	 1.387610	 29.664050	-2.754613	 161.611300	 10.626550	 27.312980	-11.110680	-68.684250	-1.995236	 10.267010	 57.783060	-4.679119	-1.641899	 32.723340	 3.436096	 0.298123	 9.389169	-19.817160	 0.125219	 2.938414	 0.305927	-0.451030	-3.568096	-0.029638	-121.925800	 5.878474	 93.305410	-1.586387	 47.489320	 6.142236	 64.511960	-2.332660	 8.873686	-54.787400	 33.337720	 43.247010	 4.557004	 20.110320	-1.708385	-5.862047	 22.327420	 2.468456	 5.367178	 5.176951	-0.154082	-0.162877	-4.998749	-0.354353	-2.616577	-1.545334	-3.513123	 118.962800	 0.517576	-91.093700	-10.046210	 46.012370	 0.048429	-11.924770	-0.205249	-7.264622	-7.034402	 34.472850	-29.780570	-2.643901	 26.809270	 1.433954	 16.307210	 46.628700	-12.525150	-8.525887	 24.688210	-1.274385
-0.044282	 1.305878	-5.866932	-1.612926	-8.234503	-176.476700	 176.067800	 13.631570	-33.271400	 1.465859	-10.923670	 1.880618	-1.139464	 63.369580	 12.831970	 1.447208	 30.423610	-2.781491	 172.699700	 34.545720	 29.313380	-0.360246	-4.779754	 6.435883	-18.822260	 11.197590	-1.832958	-1.738819	 33.664860	 4.003487	 1.843627	 12.537050	-8.426651	 2.045191	 27.126200	-2.149710	-0.706916	-14.408610	-0.262240	-121.717100	 6.410560	 93.556750	 69.297000	-25.528810	-24.933410	 3.645765	-0.188491	-0.077913	-48.986760	 56.597860	 31.094880	 4.652670	 19.308060	-1.691901	-5.863197	 21.737350	 2.403095	 5.340065	 4.540115	-0.165405	-0.159909	-4.940302	-0.236863	-2.431179	-1.658259	-3.237279	 118.758300	 0.320736	-90.993680	-32.040520	 35.516450	 14.638770	-5.105794	-0.200616	 0.049656	-13.409160	 30.116210	-17.485760	-2.572316	 26.716910	 1.398629	 16.221030	 46.326450	-12.397100	-8.526313	 24.600260	-1.268484
 0.018663	 1.498581	-5.750266	-26.278690	-66.461260	 155.321500	 20.913650	 88.387720	 120.466100	 0.540381	-4.070086	-5.905570	 9.857262	 42.186410	 11.117070	 1.265181	 28.069000	-2.701721	-7.722105	 53.488910	-154.847500	-0.256430	-3.406223	-6.156587	-33.883160	-18.413520	-7.433516	-2.762749	 44.336620	 3.486431	-33.600070	-8.533500	-0.363839	-2.462028	 32.884980	 2.423529	 0.354492	-16.811990	 0.285887	-119.890900	 3.908253	 92.223590	 145.658600	-43.262200	-9.189208	 3.034358	-0.156955	-0.079659	-109.373700	 22.116870	 56.939150	 4.973050	 28.527610	-2.052398	-5.973206	 32.794890	 3.690553	 5.905374	 18.107250	 0.014243	 0.094674	-4.856508	-0.756702	-2.678431	-2.496247	-4.119658	 119.409100	 1.866729	-91.699910	-57.486720	-13.505450	 12.861480	-4.835993	-0.190084	 0.050603	-43.568750	-5.936822	 35.516250	-2.960978	 21.085890	 1.575220	 14.938780	 41.085830	-10.376650	-8.532571	 18.683430	-0.880510
-0.018134	 1.421303	-5.753055	-10.864930	-47.493860	 170.149100	 172.420200	 57.999510	-39.740250	 0.602172	-4.533579	-1.476978	-3.806610	 53.729480	 20.355020	 1.391931	 29.719530	-2.756538	-8.640337	 78.171220	-158.954800	-0.265381	-3.524797	 2.839196	-31.810720	-14.229010	-6.362260	-11.782030	 68.359850	 17.483450	-15.102510	 0.628974	-0.264612	-0.881706	 30.554440	-1.712652	 0.092960	-16.327740	 0.637639	-120.722900	 3.859484	 92.237020	 119.902900	-54.234590	-16.868640	 3.278149	-0.169516	-0.079017	-130.835700	 33.896170	 74.692300	 4.393613	 21.092970	-1.539370	-5.883754	 27.458950	 3.050155	 5.696886	 13.064320	-0.037568	-0.094523	-5.225342	-0.724517	-2.012942	-1.996306	-4.546365	 119.362400	 1.216302	-91.440230	-64.154990	 24.935910	 31.036040	-4.989031	-0.196079	 0.050059	-41.095540	 3.598320	-14.455750	-2.779218	 24.938440	 1.497377	 15.947910	 45.332420	-11.985770	-8.532454	 22.957620	-1.159024
-0.027511	 1.396255	-5.765519	-7.421939	-40.277320	 174.228100	 172.564300	 49.322780	-38.980280	 0.621374	-4.677554	-0.811729	-4.495470	 54.811940	 20.639040	 1.399548	 29.817110	-2.759939	 27.424270	 88.951710	 165.167800	-0.273726	-3.635487	 4.409616	-30.111480	-11.331450	-5.037928	-6.898678	 60.006000	 12.101050	-9.688605	 3.884699	-1.842671	-0.206639	 30.011260	-2.216590	-0.113922	-16.077940	 0.559936	-121.227500	 4.465015	 92.560030	 104.453000	-53.365860	-19.925510	 3.291643	-0.170220	-0.078937	-125.851500	 42.065250	 80.363900	 4.377365	 20.233910	-1.561509	-5.867843	 25.369240	 2.810042	 5.576262	 10.155160	-0.075496	-0.127833	-5.198826	-0.631699	-2.171256	-1.788304	-4.320415	 119.257500	 0.969985	-91.318920	-53.227520	 28.892900	 25.446950	-14.066700	-0.547889	-0.009017	-31.881650	 9.854591	-13.459380	-2.739149	 25.738270	 1.479912	 16.127790	 45.993400	-12.257650	-8.530012	 23.728620	-1.210200
-0.033053	 1.378516	-5.778578	-5.271292	-34.536030	 177.220900	 172.656600	 42.647460	-37.307350	 0.631763	-4.755331	-1.057023	-5.000357	 55.490010	 20.873730	 1.376734	 29.524260	-2.749787	 163.620100	 80.929210	 30.315260	-0.284409	-3.776932	 4.698200	-28.257280	-8.021521	-3.640807	-3.231961	 46.971900	 6.696712	-5.991376	 6.349787	-3.585075	 0.333007	 29.648760	-2.390026	-0.234013	-15.799720	 0.434430	-121.603100	 5.000146	 92.846370	 93.443280	-49.705340	-22.666290	 3.266359	-0.168904	-0.079033	-114.510800	 49.183090	 77.564500	 4.423987	 20.438210	-1.632908	-5.863111	 24.147730	 2.671855	 5.488459	 8.051908	-0.106574	-0.145819	-5.131534	-0.538953	-2.424201	-1.658584	-4.038181	 119.171700	 0.808117	-91.238890	-35.193060	 30.622790	 15.164320	-38.352460	-1.398423	-0.427767	-15.203600	 16.748830	-9.439238	-2.711764	 26.222130	 1.467198	 16.215980	 46.308580	-12.389580	-8.528279	 24.166710	-1.239432
-0.036363	 1.365840	-5.790140	-3.990572	-30.076600	 179.334100	 172.755500	 37.516580	-35.844160	 0.638570	-4.806265	-1.181555	-5.123998	 56.003760	 20.721150	 1.357497	 29.276040	-2.741310	 165.879200	 73.023230	 29.450690	-0.294589	-3.911760	 5.131502	-26.762680	-4.925249	-2.998001	-1.847278	 35.823070	 3.713180	-3.548191	 8.115983	-5.035593	 0.764443	 29.391250	-2.492938	-0.332568	-15.583680	 0.329145	-121.923900	 5.452199	 93.092000	 87.152950	-46.249180	-23.780600	 3.255586	-0.168347	-0.079075	-102.961900	 53.820790	 71.576800	 4.463764	 20.611320	-1.693635	-5.861642	 23.112490	 2.555834	 5.413476	 6.269660	-0.135333	-0.161146	-5.074523	-0.460338	-2.638906	-1.549567	-3.798629	 119.099300	 0.670827	-91.171230	-27.339980	 29.274710	 10.989590	-46.609710	-1.637755	-0.646953	-7.097302	 22.537940	-7.120051	-2.688370	 26.632220	 1.456179	 16.291950	 46.575590	-12.502540	-8.526614	 24.538010	-1.264298
-0.040046	 1.348475	-5.808327	-2.782786	-23.821050	-178.997200	 173.467700	 30.139940	-34.979430	 0.650002	-4.891943	-0.633261	-4.505693	 57.057920	 19.308980	 1.371007	 29.450460	-2.747255	 168.966300	 62.498480	 28.195990	-0.308104	-4.090498	 5.472567	-24.819230	-0.904947	-2.295053	-1.606970	 32.357270	 3.165598	-0.967803	 10.130960	-6.376914	 1.267385	 29.021440	-2.568953	-0.459399	-15.340770	 0.179024	-121.975600	 5.757778	 93.248480	 80.765790	-41.728920	-24.654840	 3.299077	-0.170606	-0.078918	-89.129260	 57.686690	 62.059580	 4.521386	 20.362900	-1.711435	-5.861831	 22.517490	 2.489565	 5.376134	 5.387834	-0.150397	-0.164511	-5.023853	-0.389637	-2.660500	-1.530220	-3.603783	 119.012700	 0.564871	-91.117920	-23.591590	 29.969920	 8.996259	-45.072100	-1.595429	-0.603468	-4.127247	 26.632260	-8.526507	-2.660201	 26.794220	 1.442194	 16.312430	 46.646850	-12.532880	-8.525931	 24.679130	-1.273774
